<svg width="25" height="28" viewBox="0 0 25 28" fill="none" xmlns="http://www.w3.org/2000/svg">
<path d="M12.5 0.279297C6.85165 0.279297 2.27275 4.78951 2.27275 10.3531V15.729L0.0811371 21.131C-0.0587491 21.4758 -0.0159312 21.8664 0.195478 22.174C0.406909 22.4814 0.759363 22.6656 1.13636 22.6656H7.95453C7.95453 25.1469 9.98098 27.1429 12.5 27.1429C15.019 27.1429 17.0454 25.1469 17.0454 22.6656H23.8636C24.2406 22.6656 24.5931 22.4814 24.8045 22.174C25.0159 21.8664 25.0588 21.4758 24.9188 21.131L22.7272 15.729V10.3531C22.7272 4.78951 18.1484 0.279297 12.5 0.279297ZM14.7727 22.6656C14.7727 23.9105 13.7638 24.9043 12.5 24.9043C11.2362 24.9043 10.2273 23.9105 10.2273 22.6656H14.7727ZM4.54547 10.3531C4.54547 6.02587 8.10683 2.51793 12.5 2.51793C16.8932 2.51793 20.4545 6.02587 20.4545 10.3531V15.9443C20.4545 16.0866 20.482 16.2276 20.5356 16.3597L22.1856 20.427H2.81422L4.46433 16.3597C4.51792 16.2276 4.54547 16.0866 4.54547 15.9443V10.3531Z" fill="#212121"/>
</svg>
