<svg width="32" height="32" viewBox="0 0 32 32" fill="none" xmlns="http://www.w3.org/2000/svg">
<path d="M30.3868 13.2414H15.7579H1.12891M22.2596 1.86328V7.55232M9.25611 1.86328V7.55232M8.93102 30.3085H22.5847C25.3157 30.3085 26.6812 30.3085 27.7243 29.8434C28.6419 29.4344 29.3878 28.7816 29.8554 27.9788C30.3868 27.0661 30.3868 25.8713 30.3868 23.4816V11.5347C30.3868 9.14503 30.3868 7.95022 29.8554 7.03751C29.3878 6.23466 28.6419 5.58192 27.7243 5.17285C26.6812 4.7078 25.3157 4.7078 22.5847 4.7078H8.93102C6.20003 4.7078 4.83453 4.7078 3.79142 5.17285C2.87389 5.58192 2.1279 6.23466 1.66039 7.03751C1.12891 7.95022 1.12891 9.14503 1.12891 11.5347V23.4816C1.12891 25.8713 1.12891 27.0661 1.66039 27.9788C2.1279 28.7816 2.87389 29.4344 3.79142 29.8434C4.83453 30.3085 6.20002 30.3085 8.93102 30.3085Z" stroke="#353535" stroke-width="2" stroke-linecap="round" stroke-linejoin="round"/>
</svg>
