<svg width="14" height="14" viewBox="0 0 14 14" fill="none" xmlns="http://www.w3.org/2000/svg">
<path d="M12.8884 5.82841H6.80749H0.726562M9.51012 1.30859V3.5685M4.10486 1.30859V3.5685M3.96972 12.6081H9.64526C10.7805 12.6081 11.3481 12.6081 11.7817 12.4234C12.1631 12.2609 12.4732 12.0016 12.6675 11.6827C12.8884 11.3201 12.8884 10.8455 12.8884 9.89624V5.15044C12.8884 4.20119 12.8884 3.72656 12.6675 3.364C12.4732 3.04507 12.1631 2.78578 11.7817 2.62328C11.3481 2.43855 10.7805 2.43855 9.64526 2.43855H3.96972C2.83451 2.43855 2.2669 2.43855 1.83331 2.62328C1.45191 2.78578 1.14182 3.04507 0.94749 3.364C0.726562 3.72656 0.726562 4.20119 0.726562 5.15044V9.89624C0.726562 10.8455 0.726562 11.3201 0.94749 11.6827C1.14182 12.0016 1.45191 12.2609 1.83331 12.4234C2.2669 12.6081 2.83451 12.6081 3.96972 12.6081Z" stroke="#353535" stroke-width="1.0626" stroke-linecap="round" stroke-linejoin="round"/>
</svg>
