<svg width="19" height="19" viewBox="0 0 19 19" fill="none" xmlns="http://www.w3.org/2000/svg">
<path d="M9.38862 18.0931H9.56737V18.0889C14.2088 17.9934 17.956 14.1873 17.956 9.52338C17.956 4.79975 14.1123 0.956015 9.38862 0.956015C4.66502 0.956015 0.821249 4.79739 0.821249 9.52338C0.821249 14.2493 4.66495 18.0931 9.38862 18.0931ZM1.76065 9.52338C1.76065 5.3184 5.18363 1.89541 9.38862 1.89541C13.5959 1.89541 17.0166 5.31836 17.0166 9.52338C17.0166 13.7284 13.5936 17.1514 9.38862 17.1514C5.18363 17.1514 1.76065 13.7284 1.76065 9.52338Z" fill="#282828" stroke="#282828" stroke-width="0.357502"/>
<path d="M9.48328 11.132H9.45809C9.45132 11.132 9.44017 11.1317 9.42684 11.1296C9.41604 11.1279 9.38908 11.1228 9.35993 11.105C9.32588 11.0841 9.28175 11.0399 9.27473 10.9693C9.26881 10.9096 9.29375 10.867 9.30413 10.8514C9.3239 10.8216 9.3485 10.8045 9.35364 10.8009L9.35415 10.8005C9.36331 10.7941 9.37196 10.789 9.3779 10.7857C9.39995 10.7734 9.43081 10.7595 9.45951 10.747C9.49329 10.7323 9.5376 10.7137 9.5846 10.6941C9.61999 10.6793 9.65691 10.6638 9.69203 10.6489C9.7299 10.6327 9.76669 10.6168 9.80068 10.6015L7.97858 8.77944C7.87599 8.67685 7.82882 8.53453 7.84337 8.39274L7.84389 8.38765L7.84396 8.38766C7.86263 8.24581 7.94467 8.11883 8.06819 8.04397L8.06893 8.04352L8.06893 8.04352L13.4503 4.81753L13.4503 4.81749L13.5422 4.9708C13.6586 4.90098 13.8076 4.92193 13.9007 5.01968C13.9938 5.11744 14.0077 5.26641 13.9333 5.38046L9.48328 11.132ZM9.48328 11.132L9.50748 11.1251L10.3353 10.8871L10.4582 10.8518L10.4645 10.7241C10.4669 10.675 10.4777 10.6178 10.4926 10.5617M9.48328 11.132L10.4926 10.5617M10.4926 10.5617L10.6781 10.6854C10.6814 10.6807 10.6846 10.6758 10.6877 10.6709L10.4926 10.5617ZM12.1802 6.67628L10.2125 9.68613L9.06832 8.54195L12.1802 6.67628Z" fill="#282828" stroke="#282828" stroke-width="0.357502"/>
<path d="M4.68081 13.5878C4.56766 13.7763 4.60179 14.0171 4.75949 14.1674C4.84969 14.2538 4.96883 14.2984 5.08547 14.2984C5.16926 14.2984 5.26036 14.2766 5.34214 14.2223C5.34239 14.2222 5.34264 14.222 5.34289 14.2218L10.546 10.8198L10.5463 10.8196C10.6668 10.7405 10.7414 10.6129 10.7563 10.4752C10.7715 10.3347 10.7218 10.1952 10.6212 10.0945L8.64272 8.11609C8.5392 8.01257 8.39579 7.96241 8.25094 7.98147C8.10909 8.00013 7.98211 8.08218 7.90725 8.2057L7.90681 8.20644L4.68081 13.5878ZM4.68081 13.5878L4.83409 13.6797L4.68077 13.5878L4.68081 13.5878ZM9.54941 10.35L6.53956 12.3177L8.40523 9.20582L9.54941 10.35Z" fill="#282828" stroke="#282828" stroke-width="0.357502"/>
</svg>
