<svg width="23" height="24" viewBox="0 0 23 24" fill="none" xmlns="http://www.w3.org/2000/svg">
<circle cx="11.4286" cy="11.7147" r="11.4286" fill="#757575"/>
<path d="M17.305 6.38037H5.5499C5.2901 6.38037 5.04094 6.48358 4.85723 6.66729C4.67352 6.851 4.57031 7.10016 4.57031 7.35996V15.1967C4.57031 15.4565 4.67352 15.7057 4.85723 15.8894C5.04094 16.0731 5.2901 16.1763 5.5499 16.1763H17.305C17.5648 16.1763 17.814 16.0731 17.9977 15.8894C18.1814 15.7057 18.2846 15.4565 18.2846 15.1967V7.35996C18.2846 7.10016 18.1814 6.851 17.9977 6.66729C17.814 6.48358 17.5648 6.38037 17.305 6.38037ZM16.2275 7.35996L11.4275 10.6808L6.62746 7.35996H16.2275ZM5.5499 15.1967V7.80568L11.1483 11.68C11.2303 11.7368 11.3277 11.7673 11.4275 11.7673C11.5272 11.7673 11.6246 11.7368 11.7066 11.68L17.305 7.80568V15.1967H5.5499Z" fill="white"/>
</svg>
