<svg width="16" height="13" viewBox="0 0 16 13" fill="none" xmlns="http://www.w3.org/2000/svg">
<path d="M6.96879 6.9162C6.77619 6.84524 6.57006 6.80469 6.35042 6.80469H2.53205C1.5386 6.80469 0.734375 7.60891 0.734375 8.60236V12.0693H8.1481V8.60236C8.1481 7.82855 7.65475 7.16625 6.96879 6.9162Z" fill="#00192F" stroke="#00192F" stroke-width="0.872203" stroke-linecap="round" stroke-linejoin="round"/>
<path d="M6.51907 3.10939C6.51907 4.25828 5.58982 5.18753 4.44093 5.18753C3.29204 5.18753 2.36279 4.25828 2.36279 3.10939C2.36279 1.9605 3.29204 1.03125 4.44093 1.03125C5.58982 1.03125 6.51907 1.9605 6.51907 3.10939Z" fill="#00192F" stroke="#00192F" stroke-width="0.872203" stroke-linecap="round" stroke-linejoin="round"/>
<mask id="path-3-inside-1_837_29083" fill="white">
<path d="M15.9976 5.01846H13.0072V8.00887H12.0104V5.01846H9.02002V4.02166H12.0104V1.03125H13.0072V4.02166H15.9976V5.01846Z"/>
</mask>
<path d="M15.9976 5.01846H13.0072V8.00887H12.0104V5.01846H9.02002V4.02166H12.0104V1.03125H13.0072V4.02166H15.9976V5.01846Z" fill="#00192F"/>
<path d="M15.9976 5.01846V6.54482H17.524V5.01846H15.9976ZM13.0072 5.01846V3.49211H11.4809V5.01846H13.0072ZM13.0072 8.00887V9.53522H14.5336V8.00887H13.0072ZM12.0104 8.00887H10.4841V9.53522H12.0104V8.00887ZM12.0104 5.01846H13.5368V3.49211H12.0104V5.01846ZM9.02002 5.01846H7.49367V6.54482H9.02002V5.01846ZM9.02002 4.02166V2.4953H7.49367V4.02166H9.02002ZM12.0104 4.02166V5.54801H13.5368V4.02166H12.0104ZM12.0104 1.03125V-0.495104H10.4841V1.03125H12.0104ZM13.0072 1.03125H14.5336V-0.495104H13.0072V1.03125ZM13.0072 4.02166H11.4809V5.54801H13.0072V4.02166ZM15.9976 4.02166H17.524V2.4953H15.9976V4.02166ZM15.9976 3.49211H13.0072V6.54482H15.9976V3.49211ZM11.4809 5.01846V8.00887H14.5336V5.01846H11.4809ZM13.0072 6.48252H12.0104V9.53522H13.0072V6.48252ZM13.5368 8.00887V5.01846H10.4841V8.00887H13.5368ZM12.0104 3.49211H9.02002V6.54482H12.0104V3.49211ZM10.5464 5.01846V4.02166H7.49367V5.01846H10.5464ZM9.02002 5.54801H12.0104V2.4953H9.02002V5.54801ZM13.5368 4.02166V1.03125H10.4841V4.02166H13.5368ZM12.0104 2.5576H13.0072V-0.495104H12.0104V2.5576ZM11.4809 1.03125V4.02166H14.5336V1.03125H11.4809ZM13.0072 5.54801H15.9976V2.4953H13.0072V5.54801ZM14.4713 4.02166V5.01846H17.524V4.02166H14.4713Z" fill="#00192F" mask="url(#path-3-inside-1_837_29083)"/>
</svg>
