<svg width="31" height="24" viewBox="0 0 31 24" fill="none" xmlns="http://www.w3.org/2000/svg">
<path d="M13.2535 12.5707C12.875 12.4313 12.4699 12.3516 12.0382 12.3516H4.53327C2.58067 12.3516 1 13.9322 1 15.8848V22.699H15.5714V15.8848C15.5714 14.3639 14.6018 13.0622 13.2535 12.5707Z" fill="#00192F" stroke="#00192F" stroke-width="1.71429" stroke-linecap="round" stroke-linejoin="round"/>
<path d="M12.37 5.08452C12.37 7.34262 10.5436 9.16903 8.28544 9.16903C6.02734 9.16903 4.20093 7.34262 4.20093 5.08452C4.20093 2.82641 6.02734 1 8.28544 1C10.5436 1 12.37 2.82641 12.37 5.08452Z" fill="#00192F" stroke="#00192F" stroke-width="1.71429" stroke-linecap="round" stroke-linejoin="round"/>
<mask id="path-3-inside-1_837_26604" fill="white">
<path d="M30.9999 8.83673H25.1224V14.7143H23.1632V8.83673H17.2856V6.87755H23.1632V1H25.1224V6.87755H30.9999V8.83673Z"/>
</mask>
<path d="M30.9999 8.83673H25.1224V14.7143H23.1632V8.83673H17.2856V6.87755H23.1632V1H25.1224V6.87755H30.9999V8.83673Z" fill="#00192F"/>
<path d="M30.9999 8.83673V11.8367H33.9999V8.83673H30.9999ZM25.1224 8.83673V5.83673H22.1224V8.83673H25.1224ZM25.1224 14.7143V17.7143H28.1224V14.7143H25.1224ZM23.1632 14.7143H20.1632V17.7143H23.1632V14.7143ZM23.1632 8.83673H26.1632V5.83673H23.1632V8.83673ZM17.2856 8.83673H14.2856V11.8367H17.2856V8.83673ZM17.2856 6.87755V3.87755H14.2856V6.87755H17.2856ZM23.1632 6.87755V9.87755H26.1632V6.87755H23.1632ZM23.1632 1V-2H20.1632V1H23.1632ZM25.1224 1H28.1224V-2H25.1224V1ZM25.1224 6.87755H22.1224V9.87755H25.1224V6.87755ZM30.9999 6.87755H33.9999V3.87755H30.9999V6.87755ZM30.9999 5.83673H25.1224V11.8367H30.9999V5.83673ZM22.1224 8.83673V14.7143H28.1224V8.83673H22.1224ZM25.1224 11.7143H23.1632V17.7143H25.1224V11.7143ZM26.1632 14.7143V8.83673H20.1632V14.7143H26.1632ZM23.1632 5.83673H17.2856V11.8367H23.1632V5.83673ZM20.2856 8.83673V6.87755H14.2856V8.83673H20.2856ZM17.2856 9.87755H23.1632V3.87755H17.2856V9.87755ZM26.1632 6.87755V1H20.1632V6.87755H26.1632ZM23.1632 4H25.1224V-2H23.1632V4ZM22.1224 1V6.87755H28.1224V1H22.1224ZM25.1224 9.87755H30.9999V3.87755H25.1224V9.87755ZM27.9999 6.87755V8.83673H33.9999V6.87755H27.9999Z" fill="#00192F" mask="url(#path-3-inside-1_837_26604)"/>
</svg>
