<svg width="current" height="current" viewBox="0 0 28 31" fill="none" xmlns="http://www.w3.org/2000/svg">
<path d="M23.9931 11.1907C24.242 11.0052 24.1939 10.6192 23.9071 10.5004L21.8562 9.65106C21.7453 9.60513 21.6196 9.61144 21.5139 9.66823L15.4014 12.9512C15.1255 13.0994 15.1192 13.4929 15.3902 13.6498L18.146 15.2453C18.2844 15.3255 18.4572 15.3155 18.5854 15.2199L23.9931 11.1907Z" fill="white" stroke="#00192F" stroke-width="1.71201"/>
<path d="M23.5162 18.5168C23.5131 18.5177 23.5098 18.5172 23.5071 18.5156L8.09904 9.59465C7.96906 9.51939 7.87248 9.38969 7.86082 9.23995L7.68271 6.95116C7.6725 6.81987 7.59831 6.70202 7.48434 6.63603L5.39455 5.42608C5.14491 5.28154 4.82901 5.44073 4.79665 5.72737L4.05736 12.2762C4.03954 12.4341 4.11689 12.5876 4.25442 12.6672L10.617 16.351C10.8462 16.4837 10.8855 16.7985 10.6959 16.9835L5.60824 21.9475C5.41867 22.1324 5.45795 22.4472 5.68716 22.5799L7.46716 23.6105C7.59467 23.6844 7.75245 23.6821 7.8778 23.6047L15.0641 19.1654C15.1895 19.088 15.3472 19.0857 15.4748 19.1595L21.2216 22.4869C22.319 23.1223 23.7215 22.7483 24.3569 21.6509C24.9915 20.5549 24.6193 19.1546 23.5252 18.5181C23.5225 18.5165 23.5192 18.516 23.5162 18.5168Z" fill="white" stroke="#00192F" stroke-width="1.71201"/>
<rect x="2" y="28.2246" width="25.5665" height="1.94044" fill="#00192F"/>
</svg>
