<svg width="current" height="current" viewBox="0 0 26 27" fill="none" xmlns="http://www.w3.org/2000/svg">
<path d="M7.21108 3.57357C7.07733 3.5118 6.92044 3.52855 6.80274 3.61717L5.1736 4.84392C4.96411 5.00166 4.96054 5.31494 5.16638 5.47742L10.7085 9.8523C10.8512 9.96491 11.0518 9.9672 11.197 9.85788L14.3202 7.5061C14.5618 7.32417 14.5219 6.95025 14.2473 6.82343L7.21108 3.57357Z" fill="white" stroke="#00192F" stroke-width="1.71201"/>
<path d="M19.9928 3.35471C19.9924 3.35782 19.9907 3.36063 19.9882 3.36252L5.89633 13.9737C5.77692 14.0636 5.62141 14.1011 5.47966 14.0537L3.32551 13.3329C3.20063 13.2911 3.06317 13.3135 2.95797 13.3927L1.05273 14.8273C0.822297 15.0009 0.845707 15.3538 1.09704 15.4954L6.77931 18.696C6.91777 18.774 7.08927 18.7626 7.21623 18.667L13.0295 14.2896C13.2411 14.1303 13.5463 14.2169 13.6427 14.4636L16.2025 21.0141C16.2989 21.2608 16.6041 21.3473 16.8157 21.188L18.438 19.9664C18.5557 19.8778 18.6152 19.7316 18.5928 19.586L17.3195 11.3188C17.2971 11.1732 17.3566 11.027 17.4743 10.9384L22.7285 6.98193C23.7322 6.22617 23.9328 4.80209 23.177 3.79841C22.4223 2.79605 21.0009 2.59461 19.9975 3.34688C19.9949 3.34877 19.9933 3.3516 19.9928 3.35471Z" fill="white" stroke="#00192F" stroke-width="1.71201"/>
<rect y="24.5391" width="25.1473" height="1.92256" fill="#00192F"/>
</svg>
