<svg width="22" height="23" viewBox="0 0 22 23" fill="none" xmlns="http://www.w3.org/2000/svg">
<path d="M9.99298 14.1332V14.2214H11.4911V14.1332C11.5131 12.9362 11.8583 12.4075 12.7395 11.8714C13.6722 11.2986 14.2376 10.5128 14.2376 9.33045C14.2376 7.65609 12.9598 6.51048 11.0505 6.51048C9.30267 6.51048 7.89268 7.53125 7.83393 9.40389H9.42017C9.48626 8.31702 10.2574 7.83234 11.0505 7.83234C11.9317 7.83234 12.6367 8.41249 12.6367 9.33045C12.6367 10.1015 12.1667 10.645 11.5498 11.0195C10.5805 11.6217 10.015 12.2092 9.99298 14.1332ZM9.75798 16.351C9.75064 16.9238 10.228 17.3865 10.8008 17.3938C11.3662 17.3865 11.8362 16.9238 11.8436 16.351C11.8362 15.7782 11.3662 15.3082 10.8008 15.3082C10.228 15.3082 9.75064 15.7782 9.75798 16.351Z" fill="#00192F"/>
<circle cx="11.0098" cy="11.5001" r="9.98483" stroke="#00192F" stroke-width="1.3"/>
</svg>
