<svg width="11" height="12" viewBox="0 0 11 12" fill="none" xmlns="http://www.w3.org/2000/svg">
<path d="M5.29208 7.45433V7.49746H6.02538V7.45433C6.03616 6.86841 6.2051 6.6096 6.63646 6.34719C7.09297 6.06681 7.36975 5.68219 7.36975 5.10346C7.36975 4.2839 6.74429 3.72314 5.8097 3.72314C4.95419 3.72314 4.26403 4.22279 4.23527 5.13941H5.0117C5.04405 4.60741 5.42148 4.37017 5.8097 4.37017C6.24105 4.37017 6.58613 4.65414 6.58613 5.10346C6.58613 5.4809 6.35608 5.74689 6.05413 5.93022C5.57965 6.22498 5.30286 6.51254 5.29208 7.45433ZM5.17705 8.53989C5.17346 8.82027 5.40711 9.04673 5.68748 9.05032C5.96427 9.04673 6.19432 8.82027 6.19792 8.53989C6.19432 8.25951 5.96427 8.02946 5.68748 8.02946C5.40711 8.02946 5.17346 8.25951 5.17705 8.53989Z" fill="#00192F"/>
<circle cx="5.79148" cy="6.01804" r="4.88738" stroke="#00192F" stroke-width="0.636324"/>
</svg>
