<svg width="27" height="26" viewBox="0 0 27 26" fill="none" xmlns="http://www.w3.org/2000/svg">
<path d="M26.1875 24.3618L19.1074 17.2817C20.8087 15.2392 21.657 12.6194 21.476 9.9674C21.295 7.31536 20.0984 4.83521 18.1354 3.04289C16.1723 1.25057 13.5938 0.284076 10.9362 0.344466C8.27871 0.404856 5.74676 1.48748 3.86712 3.36712C1.98748 5.24676 0.904856 7.77871 0.844466 10.4362C0.784076 13.0938 1.75057 15.6723 3.54289 17.6354C5.33521 19.5984 7.81536 20.795 10.4674 20.976C13.1194 21.157 15.7392 20.3087 17.7817 18.6074L24.8618 25.6875L26.1875 24.3618ZM2.74998 10.6875C2.74998 9.0187 3.24483 7.38739 4.17195 5.99985C5.09908 4.61231 6.41683 3.53086 7.95859 2.89224C9.50034 2.25363 11.1968 2.08654 12.8336 2.4121C14.4703 2.73766 15.9737 3.54126 17.1537 4.72126C18.3337 5.90127 19.1373 7.40469 19.4629 9.0414C19.7884 10.6781 19.6213 12.3746 18.9827 13.9164C18.3441 15.4581 17.2626 16.7759 15.8751 17.703C14.4876 18.6301 12.8563 19.125 11.1875 19.125C8.95048 19.1225 6.80581 18.2328 5.22401 16.651C3.6422 15.0692 2.75246 12.9245 2.74998 10.6875Z" fill="black"/>
</svg>
