<svg width="22" height="22" viewBox="0 0 22 22" fill="none" xmlns="http://www.w3.org/2000/svg">
<path d="M14.26 14.6622C17.2936 11.5367 17.2936 6.46964 14.26 3.34413C11.2264 0.218623 6.30832 0.218623 3.27474 3.34413C0.241156 6.46964 0.241156 11.5367 3.27474 14.6622C6.30832 17.7878 11.2264 17.7878 14.26 14.6622V14.6622Z" stroke="#FF5C00" stroke-width="2" stroke-linecap="round" stroke-linejoin="round"/>
<path d="M14.26 14.6622C17.2936 11.5367 17.2936 6.46964 14.26 3.34413C11.2264 0.218623 6.30832 0.218623 3.27474 3.34413C0.241156 6.46964 0.241156 11.5367 3.27474 14.6622C6.30832 17.7878 11.2264 17.7878 14.26 14.6622V14.6622Z" stroke="#FF5C00" stroke-width="2" stroke-linecap="round" stroke-linejoin="round"/>
<path d="M14.7193 15.1367L20.4102 21.0001" stroke="#FF5C00" stroke-width="2" stroke-linecap="round" stroke-linejoin="round"/>
</svg>
