<svg width="19" height="22" viewBox="0 0 19 22" fill="none" xmlns="http://www.w3.org/2000/svg">
<path d="M6.05057 12.4162L12.4506 16.1457M12.4412 5.85692L6.05057 9.58635M17.6793 4.44199C17.6793 5.99453 16.4207 7.25312 14.8681 7.25312C13.3156 7.25312 12.057 5.99453 12.057 4.44199C12.057 2.88944 13.3156 1.63086 14.8681 1.63086C16.4207 1.63086 17.6793 2.88944 17.6793 4.44199ZM6.43476 11.0013C6.43476 12.5538 5.17617 13.8124 3.62363 13.8124C2.07108 13.8124 0.8125 12.5538 0.8125 11.0013C0.8125 9.44874 2.07108 8.19016 3.62363 8.19016C5.17617 8.19016 6.43476 9.44874 6.43476 11.0013ZM17.6793 17.5606C17.6793 19.1131 16.4207 20.3717 14.8681 20.3717C13.3156 20.3717 12.057 19.1131 12.057 17.5606C12.057 16.008 13.3156 14.7495 14.8681 14.7495C16.4207 14.7495 17.6793 16.008 17.6793 17.5606Z" stroke="#2B2B2B" stroke-width="1.49927" stroke-linecap="round" stroke-linejoin="round"/>
</svg>
