<svg width="current" height="current" viewBox="0 0 28 27" fill="none" xmlns="http://www.w3.org/2000/svg">
<path d="M13.5989 0.708535C13.8255 0.249331 14.4803 0.249332 14.707 0.708535L18.5073 8.40882C18.5973 8.59117 18.7712 8.71756 18.9725 8.7468L27.4702 9.9816C27.977 10.0552 28.1793 10.678 27.8126 11.0354L21.6636 17.0293C21.518 17.1712 21.4515 17.3757 21.4859 17.5761L22.9375 26.0396C23.0241 26.5443 22.4943 26.9292 22.0411 26.6909L14.4404 22.695C14.2604 22.6004 14.0454 22.6004 13.8654 22.695L6.26478 26.6909C5.81152 26.9292 5.28177 26.5443 5.36833 26.0396L6.81993 17.5761C6.8543 17.3757 6.78785 17.1712 6.64224 17.0293L0.493196 11.0354C0.126501 10.678 0.328848 10.0552 0.835609 9.9816L9.33338 8.7468C9.53461 8.71756 9.70857 8.59117 9.79857 8.40882L13.5989 0.708535Z" fill="#262626"/>
</svg>
